<svg width="24" height="24" viewBox="0 0 24 24" fill="none" xmlns="http://www.w3.org/2000/svg">
<path d="M6.08 12.3798C6.12763 12.5026 6.19903 12.6147 6.29 12.7098L11.29 17.7098C11.3832 17.8031 11.4939 17.877 11.6158 17.9275C11.7376 17.978 11.8681 18.004 12 18.004C12.2663 18.004 12.5217 17.8981 12.71 17.7098C12.8032 17.6166 12.8772 17.5059 12.9277 17.3841C12.9781 17.2622 13.0041 17.1317 13.0041 16.9998C13.0041 16.7335 12.8983 16.4781 12.71 16.2898L9.41 12.9998H17C17.2652 12.9998 17.5196 12.8945 17.7071 12.7069C17.8946 12.5194 18 12.265 18 11.9998C18 11.7346 17.8946 11.4802 17.7071 11.2927C17.5196 11.1052 17.2652 10.9998 17 10.9998H9.41L12.71 7.70981C12.8037 7.61695 12.8781 7.50628 12.9289 7.38444C12.9797 7.26261 13.0058 7.13195 13.0058 6.99981C13.0058 6.86767 12.9797 6.73701 12.9289 6.61517C12.8781 6.49334 12.8037 6.38267 12.71 6.28981C12.617 6.19605 12.5064 6.12165 12.3846 6.07087C12.2627 6.02009 12.132 5.99396 12 5.99396C11.868 5.99396 11.7373 6.02009 11.6154 6.07087C11.4936 6.12165 11.383 6.19605 11.29 6.28981L6.29 11.2898C6.19903 11.3849 6.12763 11.4971 6.08 11.6198C5.98 11.8633 5.98 12.1364 6.08 12.3798Z" fill="#212121"/>
</svg>
